<svg class="title-img" viewBox="0 0 347 55" xmlns="http://www.w3.org/2000/svg" fill-rule="evenodd" clip-rule="evenodd" stroke-linejoin="round" stroke-miterlimit="1.414"><path d="M171.311.554h1.175v54h-1.175zM68 12.871h6.218l14.37 18.889V12.871h6.668v30.67h-5.743l-14.853-19.5v19.5H68v-30.67zm42.41 18.577L98.619 12.871h7.889l7.32 12.315 7.446-12.315h7.666l-11.784 18.448v12.222h-6.746V31.448zm21.422-1.047v-17.53h6.746v17.354c0 4.992 2.496 7.582 6.617 7.582s6.618-2.504 6.618-7.359V12.871h6.746V30.18c0 9.287-5.211 13.842-13.45 13.842-8.242 0-13.277-4.598-13.277-13.621zm-108.04-1.235c-5.535-3.304-4.981-8.019-2.687-11.488.05-.07.067-.191.051-.332-.096-.824-.996-2.906-1.369-3.476-.1-.145-.184-.133-.188-.028-.031.94-1.109 3.305-2.748 6.024-1.748 2.898-1.75 9.187 6.92 9.433.079 0 .103-.082.021-.133zm1.482-.242c-3.309-7.074 3.308-11.637 4.388-12.629.153-.136.111-.265.115-.424.002-2.224-1.271-5.826-1.689-6.341-.06-.078-.112-.045-.133.035-.567 2.195-3.582 5.465-4.184 6.18-5.111 6.074-3.941 9.773 1.393 13.261.066.043.148-.004.11-.082zm1.077-.303c1.566-7.498 7.666-7.681 8.211-9.103.854-2.219-.705-6.156-1.103-6.621-.039-.051-.094-.024-.112.023-.832 1.817-2.172 3.547-3.151 4.34-1.382 1.117-6.683 5.043-3.973 11.367.034.078.111.059.128-.006zm1.088.655c9.877.355 10.578-8.649 10.617-12.02.004-.195-.091-.213-.142-.074-.289.703-1.576 3.211-5.139 4.738-3.182 1.367-5.096 4.463-5.427 7.246-.016.067.042.102.091.11zm2.246 3.371v-2.27h-7.793v2.27h7.793zm-4.556 16.039c.062.383.882.57 1.066 0l1.889-14.957h-4.588l1.633 14.957zM53.994 55H0V1h53.994v54zm136.011-38.749h-3.725v-2.482h10.142v2.482h-3.725v9.758h-2.692v-9.758zm13.593 4.635l-1.625-3.971-1.626 3.971h3.251zm-2.831-7.205h2.481l5.246 12.328h-2.814l-1.119-2.746h-5.176l-1.119 2.746h-2.745l5.246-12.328zm9.294.088h2.484l5.734 7.537v-7.537h2.659v12.24h-2.292l-5.927-7.781v7.781h-2.658v-12.24zm16.117 2.429v7.381h2.08c2.203 0 3.689-1.488 3.689-3.656v-.035c0-2.168-1.486-3.69-3.689-3.69h-2.08zm-2.694-2.429h4.774c3.847 0 6.506 2.64 6.506 6.084v.035c0 3.445-2.659 6.121-6.506 6.121h-4.774v-12.24zm22.989 6.154v-.035c0-2.098-1.539-3.846-3.707-3.846-2.17 0-3.674 1.713-3.674 3.811v.035c0 2.099 1.539 3.847 3.709 3.847 2.168 0 3.672-1.712 3.672-3.812zm-10.196 0v-.035c0-3.479 2.744-6.33 6.524-6.33 3.775 0 6.486 2.816 6.486 6.295v.035c0 3.48-2.746 6.33-6.521 6.33-3.778 0-6.489-2.815-6.489-6.295zm15.067-6.154h2.482l5.736 7.537v-7.537h2.659v12.24h-2.291l-5.928-7.781v7.781h-2.658v-12.24zm18.234 10.457l1.592-1.907c1.101.909 2.256 1.487 3.654 1.487 1.102 0 1.768-.438 1.768-1.154v-.036c0-.681-.42-1.031-2.467-1.556-2.465-.629-4.057-1.311-4.057-3.742v-.036c0-2.22 1.784-3.689 4.286-3.689 1.783 0 3.304.56 4.544 1.557l-1.398 2.029c-1.084-.752-2.15-1.207-3.182-1.207-1.033 0-1.574.472-1.574 1.066v.035c0 .805.524 1.067 2.641 1.61 2.482.646 3.881 1.539 3.881 3.672v.035c0 2.429-1.854 3.795-4.495 3.795a7.797 7.797 0 0 1-5.193-1.959zm11.5-4.303v-.035c0-3.479 2.621-6.33 6.381-6.33 2.309 0 3.691.769 4.826 1.888l-1.713 1.977c-.943-.857-1.906-1.381-3.131-1.381-2.062 0-3.548 1.713-3.548 3.811v.035c0 2.099 1.451 3.847 3.548 3.847 1.401 0 2.256-.558 3.219-1.433l1.713 1.73c-1.258 1.348-2.658 2.186-5.018 2.186-3.603 0-6.277-2.779-6.277-6.295zm13.455-6.154h2.694v4.843h4.966v-4.843h2.692v12.24h-2.692v-4.914h-4.966v4.914h-2.694v-12.24zm22.953 6.154v-.035c0-2.098-1.539-3.846-3.707-3.846s-3.672 1.713-3.672 3.811v.035c0 2.099 1.539 3.847 3.707 3.847s3.672-1.712 3.672-3.812zm-10.193 0v-.035c0-3.479 2.744-6.33 6.521-6.33 3.778 0 6.489 2.816 6.489 6.295v.035c0 3.48-2.746 6.33-6.524 6.33-3.777 0-6.486-2.815-6.486-6.295zm25.066 0v-.035c0-2.098-1.539-3.846-3.707-3.846s-3.672 1.713-3.672 3.811v.035c0 2.099 1.54 3.847 3.708 3.847 2.167 0 3.671-1.712 3.671-3.812zm-10.193 0v-.035c0-3.479 2.744-6.33 6.522-6.33 3.777 0 6.488 2.816 6.488 6.295v.035c0 3.48-2.746 6.33-6.524 6.33-3.777 0-6.486-2.815-6.486-6.295zm15.416-6.154h2.693v9.793h6.102v2.447h-8.795v-12.24zM196.807 37.923v-.035c0-2.098-1.538-3.846-3.707-3.846-2.168 0-3.672 1.713-3.672 3.811v.035c0 2.099 1.539 3.847 3.707 3.847s3.672-1.712 3.672-3.812zm-10.195 0v-.035c0-3.479 2.745-6.33 6.523-6.33 3.777 0 6.487 2.816 6.487 6.295v.035c0 3.48-2.745 6.33-6.522 6.33-3.778 0-6.488-2.815-6.488-6.295zm15.417-6.154h9.321v2.447h-6.627v2.605h5.84v2.45h-5.84v4.738h-2.694v-12.24zm16.729 0h9.234v2.394h-6.558v2.485h5.771v2.394h-5.771v2.57h6.644v2.397h-9.32v-12.24zm11.724 0h2.485l5.734 7.537v-7.537h2.658v12.24h-2.291l-5.927-7.781v7.781h-2.659v-12.24zm13.286 6.154v-.035c0-3.479 2.709-6.33 6.416-6.33 2.203 0 3.533.595 4.808 1.679l-1.695 2.045c-.943-.785-1.783-1.24-3.199-1.24-1.959 0-3.516 1.731-3.516 3.811v.035c0 2.238 1.539 3.883 3.707 3.883.979 0 1.854-.244 2.535-.735v-1.748h-2.709v-2.326h5.315v5.316c-1.258 1.067-2.991 1.94-5.229 1.94-3.812 0-6.433-2.674-6.433-6.295zm14.384-6.154h2.694v12.24h-2.694zm5.756 0h2.483l5.736 7.537v-7.537h2.658v12.24h-2.291l-5.928-7.781v7.781h-2.658v-12.24zm13.824 0h9.233v2.394h-6.557v2.485h5.77v2.394h-5.77v2.57h6.645v2.397h-9.321v-12.24zm11.727 0h9.232v2.394h-6.556v2.485h5.769v2.394h-5.769v2.57h6.644v2.397h-9.32v-12.24zm17.146 5.945c1.311 0 2.063-.699 2.063-1.73v-.036c0-1.154-.805-1.75-2.115-1.75h-2.676v3.516h2.728zm-5.421-5.945h5.595c1.557 0 2.764.437 3.567 1.24.683.684 1.05 1.644 1.05 2.799v.035c0 1.976-1.066 3.217-2.623 3.795l2.991 4.371h-3.149l-2.623-3.918h-2.115v3.918h-2.693v-12.24zm12.775 0h2.693v12.24h-2.693zm5.756 0h2.482l5.737 7.537v-7.537h2.658v12.24h-2.291l-5.928-7.781v7.781h-2.658v-12.24zM333 37.923v-.035c0-3.479 2.709-6.33 6.416-6.33 2.203 0 3.533.595 4.809 1.679l-1.696 2.045c-.945-.785-1.783-1.24-3.199-1.24-1.959 0-3.516 1.731-3.516 3.811v.035c0 2.238 1.54 3.883 3.707 3.883.979 0 1.854-.244 2.536-.735v-1.748h-2.711v-2.326h5.316v5.316c-1.258 1.067-2.99 1.94-5.228 1.94-3.813 0-6.434-2.674-6.434-6.295z" fill-rule="nonzero"/></svg>