<?xml version="1.0" encoding="UTF-8" standalone="no"?><!DOCTYPE svg PUBLIC "-//W3C//DTD SVG 1.1//EN" "http://www.w3.org/Graphics/SVG/1.1/DTD/svg11.dtd"><svg class="title-img" viewBox="0 0 347 55" version="1.1" xmlns="http://www.w3.org/2000/svg" xmlns:xlink="http://www.w3.org/1999/xlink" xml:space="preserve" style="fill-rule:evenodd;clip-rule:evenodd;stroke-linejoin:round;stroke-miterlimit:1.41421;"><g><rect x="171.311" y="0.554" width="1.175" height="54" style="fill-rule:nonzero;"/><path d="M68,12.871l6.218,0l14.37,18.889l0,-18.889l6.668,0l0,30.67l-5.743,0l-14.853,-19.5l0,19.5l-6.66,0l0,-30.67Z" style="fill-rule:nonzero;"/><path d="M110.41,31.448l-11.791,-18.577l7.889,0l7.32,12.315l7.446,-12.315l7.666,0l-11.784,18.448l0,12.222l-6.746,0l0,-12.093Z" style="fill-rule:nonzero;"/><path d="M131.832,30.401l0,-17.53l6.746,0l0,17.354c0,4.992 2.496,7.582 6.617,7.582c4.121,0 6.618,-2.504 6.618,-7.359l0,-17.577l6.746,0l0,17.309c0,9.287 -5.211,13.842 -13.45,13.842c-8.242,0 -13.277,-4.598 -13.277,-13.621Z" style="fill-rule:nonzero;"/><path d="M23.792,29.166c-5.535,-3.304 -4.981,-8.019 -2.687,-11.488c0.05,-0.07 0.067,-0.191 0.051,-0.332c-0.096,-0.824 -0.996,-2.906 -1.369,-3.476c-0.1,-0.145 -0.184,-0.133 -0.188,-0.028c-0.031,0.94 -1.109,3.305 -2.748,6.024c-1.748,2.898 -1.75,9.187 6.92,9.433c0.079,0 0.103,-0.082 0.021,-0.133Zm1.482,-0.242c-3.309,-7.074 3.308,-11.637 4.388,-12.629c0.153,-0.136 0.111,-0.265 0.115,-0.424c0.002,-2.224 -1.271,-5.826 -1.689,-6.341c-0.06,-0.078 -0.112,-0.045 -0.133,0.035c-0.567,2.195 -3.582,5.465 -4.184,6.18c-5.111,6.074 -3.941,9.773 1.393,13.261c0.066,0.043 0.148,-0.004 0.11,-0.082Zm1.077,-0.303c1.566,-7.498 7.666,-7.681 8.211,-9.103c0.854,-2.219 -0.705,-6.156 -1.103,-6.621c-0.039,-0.051 -0.094,-0.024 -0.112,0.023c-0.832,1.817 -2.172,3.547 -3.151,4.34c-1.382,1.117 -6.683,5.043 -3.973,11.367c0.034,0.078 0.111,0.059 0.128,-0.006Zm1.088,0.655c9.877,0.355 10.578,-8.649 10.617,-12.02c0.004,-0.195 -0.091,-0.213 -0.142,-0.074c-0.289,0.703 -1.576,3.211 -5.139,4.738c-3.182,1.367 -5.096,4.463 -5.427,7.246c-0.016,0.067 0.042,0.102 0.091,0.11Zm2.246,3.371l0,-2.27l-7.793,0l0,2.27l7.793,0Zm-4.556,16.039c0.062,0.383 0.882,0.57 1.066,0l1.889,-14.957l-4.588,0l1.633,14.957Zm28.865,6.314l-53.994,0l0,-54l53.994,0l0,54Z" style="fill-rule:nonzero;"/><path d="M190.005,16.251l-3.725,0l0,-2.482l10.142,0l0,2.482l-3.725,0l0,9.758l-2.692,0l0,-9.758Z" style="fill-rule:nonzero;"/><path d="M203.598,20.886l-1.625,-3.971l-1.626,3.971l3.251,0Zm-2.831,-7.205l2.481,0l5.246,12.328l-2.814,0l-1.119,-2.746l-5.176,0l-1.119,2.746l-2.745,0l5.246,-12.328Z" style="fill-rule:nonzero;"/><path d="M210.061,13.769l2.484,0l5.734,7.537l0,-7.537l2.659,0l0,12.24l-2.292,0l-5.927,-7.781l0,7.781l-2.658,0l0,-12.24Z" style="fill-rule:nonzero;"/><path d="M226.178,16.198l0,7.381l2.08,0c2.203,0 3.689,-1.488 3.689,-3.656l0,-0.035c0,-2.168 -1.486,-3.69 -3.689,-3.69l-2.08,0Zm-2.694,-2.429l4.774,0c3.847,0 6.506,2.64 6.506,6.084l0,0.035c0,3.445 -2.659,6.121 -6.506,6.121l-4.774,0l0,-12.24Z" style="fill-rule:nonzero;"/><path d="M246.473,19.923l0,-0.035c0,-2.098 -1.539,-3.846 -3.707,-3.846c-2.17,0 -3.674,1.713 -3.674,3.811l0,0.035c0,2.099 1.539,3.847 3.709,3.847c2.168,0 3.672,-1.712 3.672,-3.812Zm-10.196,0l0,-0.035c0,-3.479 2.744,-6.33 6.524,-6.33c3.775,0 6.486,2.816 6.486,6.295l0,0.035c0,3.48 -2.746,6.33 -6.521,6.33c-3.778,0 -6.489,-2.815 -6.489,-6.295Z" style="fill-rule:nonzero;"/><path d="M251.344,13.769l2.482,0l5.736,7.537l0,-7.537l2.659,0l0,12.24l-2.291,0l-5.928,-7.781l0,7.781l-2.658,0l0,-12.24Z" style="fill-rule:nonzero;"/><path d="M269.578,24.226l1.592,-1.907c1.101,0.909 2.256,1.487 3.654,1.487c1.102,0 1.768,-0.438 1.768,-1.154l0,-0.036c0,-0.681 -0.42,-1.031 -2.467,-1.556c-2.465,-0.629 -4.057,-1.311 -4.057,-3.742l0,-0.036c0,-2.22 1.784,-3.689 4.286,-3.689c1.783,0 3.304,0.56 4.544,1.557l-1.398,2.029c-1.084,-0.752 -2.15,-1.207 -3.182,-1.207c-1.033,0 -1.574,0.472 -1.574,1.066l0,0.035c0,0.805 0.524,1.067 2.641,1.61c2.482,0.646 3.881,1.539 3.881,3.672l0,0.035c0,2.429 -1.854,3.795 -4.495,3.795c-1.853,0 -3.724,-0.649 -5.193,-1.959Z" style="fill-rule:nonzero;"/><path d="M281.078,19.923l0,-0.035c0,-3.479 2.621,-6.33 6.381,-6.33c2.309,0 3.691,0.769 4.826,1.888l-1.713,1.977c-0.943,-0.857 -1.906,-1.381 -3.131,-1.381c-2.062,0 -3.548,1.713 -3.548,3.811l0,0.035c0,2.099 1.451,3.847 3.548,3.847c1.401,0 2.256,-0.558 3.219,-1.433l1.713,1.73c-1.258,1.348 -2.658,2.186 -5.018,2.186c-3.603,0 -6.277,-2.779 -6.277,-6.295Z" style="fill-rule:nonzero;"/><path d="M294.533,13.769l2.694,0l0,4.843l4.966,0l0,-4.843l2.692,0l0,12.24l-2.692,0l0,-4.914l-4.966,0l0,4.914l-2.694,0l0,-12.24Z" style="fill-rule:nonzero;"/><path d="M317.486,19.923l0,-0.035c0,-2.098 -1.539,-3.846 -3.707,-3.846c-2.168,0 -3.672,1.713 -3.672,3.811l0,0.035c0,2.099 1.539,3.847 3.707,3.847c2.168,0 3.672,-1.712 3.672,-3.812Zm-10.193,0l0,-0.035c0,-3.479 2.744,-6.33 6.521,-6.33c3.778,0 6.489,2.816 6.489,6.295l0,0.035c0,3.48 -2.746,6.33 -6.524,6.33c-3.777,0 -6.486,-2.815 -6.486,-6.295Z" style="fill-rule:nonzero;"/><path d="M332.359,19.923l0,-0.035c0,-2.098 -1.539,-3.846 -3.707,-3.846c-2.168,0 -3.672,1.713 -3.672,3.811l0,0.035c0,2.099 1.54,3.847 3.708,3.847c2.167,0 3.671,-1.712 3.671,-3.812Zm-10.193,0l0,-0.035c0,-3.479 2.744,-6.33 6.522,-6.33c3.777,0 6.488,2.816 6.488,6.295l0,0.035c0,3.48 -2.746,6.33 -6.524,6.33c-3.777,0 -6.486,-2.815 -6.486,-6.295Z" style="fill-rule:nonzero;"/><path d="M337.582,13.769l2.693,0l0,9.793l6.102,0l0,2.447l-8.795,0l0,-12.24Z" style="fill-rule:nonzero;"/><path d="M196.807,37.923l0,-0.035c0,-2.098 -1.538,-3.846 -3.707,-3.846c-2.168,0 -3.672,1.713 -3.672,3.811l0,0.035c0,2.099 1.539,3.847 3.707,3.847c2.168,0 3.672,-1.712 3.672,-3.812Zm-10.195,0l0,-0.035c0,-3.479 2.745,-6.33 6.523,-6.33c3.777,0 6.487,2.816 6.487,6.295l0,0.035c0,3.48 -2.745,6.33 -6.522,6.33c-3.778,0 -6.488,-2.815 -6.488,-6.295Z" style="fill-rule:nonzero;"/><path d="M202.029,31.769l9.321,0l0,2.447l-6.627,0l0,2.605l5.84,0l0,2.45l-5.84,0l0,4.738l-2.694,0l0,-12.24Z" style="fill-rule:nonzero;"/><path d="M218.758,31.769l9.234,0l0,2.394l-6.558,0l0,2.485l5.771,0l0,2.394l-5.771,0l0,2.57l6.644,0l0,2.397l-9.32,0l0,-12.24Z" style="fill-rule:nonzero;"/><path d="M230.482,31.769l2.485,0l5.734,7.537l0,-7.537l2.658,0l0,12.24l-2.291,0l-5.927,-7.781l0,7.781l-2.659,0l0,-12.24Z" style="fill-rule:nonzero;"/><path d="M243.768,37.923l0,-0.035c0,-3.479 2.709,-6.33 6.416,-6.33c2.203,0 3.533,0.595 4.808,1.679l-1.695,2.045c-0.943,-0.785 -1.783,-1.24 -3.199,-1.24c-1.959,0 -3.516,1.731 -3.516,3.811l0,0.035c0,2.238 1.539,3.883 3.707,3.883c0.979,0 1.854,-0.244 2.535,-0.735l0,-1.748l-2.709,0l0,-2.326l5.315,0l0,5.316c-1.258,1.067 -2.991,1.94 -5.229,1.94c-3.812,0 -6.433,-2.674 -6.433,-6.295Z" style="fill-rule:nonzero;"/><rect x="258.152" y="31.769" width="2.694" height="12.24" style="fill-rule:nonzero;"/><path d="M263.908,31.769l2.483,0l5.736,7.537l0,-7.537l2.658,0l0,12.24l-2.291,0l-5.928,-7.781l0,7.781l-2.658,0l0,-12.24Z" style="fill-rule:nonzero;"/><path d="M277.732,31.769l9.233,0l0,2.394l-6.557,0l0,2.485l5.77,0l0,2.394l-5.77,0l0,2.57l6.645,0l0,2.397l-9.321,0l0,-12.24Z" style="fill-rule:nonzero;"/><path d="M289.459,31.769l9.232,0l0,2.394l-6.556,0l0,2.485l5.769,0l0,2.394l-5.769,0l0,2.57l6.644,0l0,2.397l-9.32,0l0,-12.24Z" style="fill-rule:nonzero;"/><path d="M306.605,37.714c1.311,0 2.063,-0.699 2.063,-1.73l0,-0.036c0,-1.154 -0.805,-1.75 -2.115,-1.75l-2.676,0l0,3.516l2.728,0Zm-5.421,-5.945l5.595,0c1.557,0 2.764,0.437 3.567,1.24c0.683,0.684 1.05,1.644 1.05,2.799l0,0.035c0,1.976 -1.066,3.217 -2.623,3.795l2.991,4.371l-3.149,0l-2.623,-3.918l-2.115,0l0,3.918l-2.693,0l0,-12.24Z" style="fill-rule:nonzero;"/><rect x="313.959" y="31.769" width="2.693" height="12.24" style="fill-rule:nonzero;"/><path d="M319.715,31.769l2.482,0l5.737,7.537l0,-7.537l2.658,0l0,12.24l-2.291,0l-5.928,-7.781l0,7.781l-2.658,0l0,-12.24Z" style="fill-rule:nonzero;"/><path d="M333,37.923l0,-0.035c0,-3.479 2.709,-6.33 6.416,-6.33c2.203,0 3.533,0.595 4.809,1.679l-1.696,2.045c-0.945,-0.785 -1.783,-1.24 -3.199,-1.24c-1.959,0 -3.516,1.731 -3.516,3.811l0,0.035c0,2.238 1.54,3.883 3.707,3.883c0.979,0 1.854,-0.244 2.536,-0.735l0,-1.748l-2.711,0l0,-2.326l5.316,0l0,5.316c-1.258,1.067 -2.99,1.94 -5.228,1.94c-3.813,0 -6.434,-2.674 -6.434,-6.295Z" style="fill-rule:nonzero;"/></g></svg>